<svg width="48" height="48" viewBox="0 0 48 48" fill="none" xmlns="http://www.w3.org/2000/svg">
<g clip-path="url(#clip0_12_2)">
<rect width="48" height="48" fill="white"/>
<path d="M23.2188 4.95349C19.9328 4.95349 17.4977 4.95415 15.5701 5.10806C13.6481 5.26153 12.2737 5.56548 11.1018 6.14907C8.9907 7.20033 7.27458 8.87754 6.19893 10.9407C5.6018 12.0861 5.2908 13.4293 5.13377 15.3078C4.97629 17.1916 4.97561 19.5716 4.97561 22.783V26.217C4.97561 29.4284 4.97629 31.8084 5.13377 33.6922C5.2908 35.5707 5.6018 36.9139 6.19893 38.0593C7.27458 40.1225 8.9907 41.7997 11.1018 42.8509C12.2737 43.4345 13.6481 43.7385 15.5701 43.8919C17.4977 44.0458 19.9328 44.0465 23.2188 44.0465H24.7812C28.0672 44.0465 30.5023 44.0458 32.4299 43.8919C34.3519 43.7385 35.7263 43.4345 36.8982 42.8509C39.0093 41.7997 40.7254 40.1225 41.8011 38.0593C42.3982 36.9139 42.7092 35.5707 42.8662 33.6922C43.0237 31.8084 43.0244 29.4284 43.0244 26.217V22.8817C43.0244 21.9125 43.0216 21.2123 42.9939 20.6507C42.9714 20.3244 42.9366 20.0444 42.8834 19.8033C42.7839 19.3527 42.6325 19.0703 42.4356 18.8778C42.2387 18.6853 41.9495 18.5374 41.4886 18.4401C41.022 18.3418 40.4128 18.3023 39.6098 18.3023V18.293C39.315 18.2982 38.9767 18.3023 38.5922 18.3023C37.256 18.3024 36.2287 18.3023 35.4043 18.2483C34.5759 18.194 33.9151 18.0844 33.3159 17.8461C31.7344 17.2165 30.4789 15.9893 29.8346 14.4437C29.5904 13.8578 29.4768 13.2127 29.4211 12.4026C29.3657 11.5968 29.3658 10.5934 29.3659 9.28702C29.3659 8.91052 29.3681 8.57927 29.3735 8.2907H29.3659C29.3659 7.50565 29.3255 6.91056 29.2248 6.45449C29.1254 6.00376 28.974 5.72146 28.7771 5.52893C28.5801 5.33641 28.2912 5.18851 27.83 5.0913C27.5985 5.0425 27.332 5.00732 27.024 4.98515C26.4391 4.95518 25.7073 4.95349 24.6803 4.95349H23.2188Z" fill="#F1F1FF"/>
<path d="M26.572 27.6381C27.398 26.6824 28.9065 26.6719 29.7462 27.6163L36.5898 35.3128C37.5251 36.3649 36.7577 37.9993 35.3287 38H11.2529C10.0701 37.9994 9.54875 36.5498 10.4725 35.8304L14.1317 32.9807C14.9263 32.3619 16.0655 32.391 16.8251 33.0501L18.7606 34.7298C19.2872 35.1862 20.0975 35.1301 20.5515 34.6049L26.572 27.6381Z" fill="#7370C1"/>
<path d="M15.509 22C17.2371 22.0003 18.6384 23.364 18.6384 25.0461C18.6384 26.7283 17.2371 28.0919 15.509 28.0922C13.7806 28.0922 12.3795 26.7284 12.3795 25.0461C12.3795 23.3638 13.7806 22 15.509 22Z" fill="#7370C1"/>
<path d="M34.8545 5.15235C34.3864 4.68358 33.6272 4.68255 33.1582 5.15039C32.6893 5.61857 32.6882 6.37863 33.1563 6.84766C34.5316 8.22529 36.1771 9.35249 37.6904 10.2266C29.0366 11.0842 22.6784 16.2798 21.8076 23.8633C21.7321 24.5216 22.2049 25.1168 22.8633 25.1924C23.5216 25.2679 24.1168 24.7951 24.1924 24.1367C24.9241 17.7651 30.5256 12.9933 38.8838 12.5352C37.3988 13.7928 35.8422 15.6699 35.3232 18.2646C35.1933 18.9145 35.6148 19.5468 36.2646 19.6768C36.9145 19.8067 37.5468 19.3852 37.6768 18.7354C38.0976 16.6309 39.4777 15.0833 40.8555 14.0264C41.5368 13.5037 42.1926 13.121 42.6768 12.8701C42.9178 12.7453 43.114 12.654 43.2461 12.5957C43.3121 12.5666 43.3624 12.545 43.3936 12.5322C43.4089 12.5259 43.4199 12.5219 43.4258 12.5195L43.4277 12.5176C43.8991 12.3374 44.2084 11.8824 44.2002 11.3779C44.1919 10.8734 43.8686 10.4273 43.3916 10.2627H43.3906C43.3891 10.2622 43.3858 10.2612 43.3818 10.2598C43.3736 10.2569 43.3605 10.2525 43.3428 10.2461C43.3064 10.233 43.2502 10.212 43.1768 10.1846C43.0297 10.1297 42.8121 10.0469 42.5391 9.93555C41.9922 9.71248 41.225 9.37855 40.3525 8.93945C38.5919 8.05329 36.4716 6.77215 34.8545 5.15235Z" fill="#7370C1"/>
</g>
<defs>
<clipPath id="clip0_12_2">
<rect width="48" height="48" fill="white"/>
</clipPath>
</defs>
</svg>
